<?xml version="1.0" encoding="UTF-8" standalone="no" ?>
<!DOCTYPE svg PUBLIC "-//W3C//DTD SVG 1.1//EN" "http://www.w3.org/Graphics/SVG/1.1/DTD/svg11.dtd">
<svg xmlns="http://www.w3.org/2000/svg" xmlns:xlink="http://www.w3.org/1999/xlink" version="1.1" width="1080" height="1080" viewBox="0 0 1080 1080" xml:space="preserve">
<desc>Created with Fabric.js 4.2.0</desc>
<defs>
</defs>
<g transform="matrix(1 0 0 1 540 540)" id="043eafcc-549e-43ed-b533-d06666bb3d4f"  >
</g>
<g transform="matrix(1 0 0 1 540 540)" id="61e83e7c-954b-4bd3-94e3-103e2ec87f23"  >
<rect style="stroke: none; stroke-width: 1; stroke-dasharray: none; stroke-linecap: butt; stroke-dashoffset: 0; stroke-linejoin: miter; stroke-miterlimit: 4; fill: rgb(255,255,255); fill-rule: nonzero; opacity: 1;" vector-effect="non-scaling-stroke"  x="-540" y="-540" rx="0" ry="0" width="1080" height="1080" />
</g>
<g transform="matrix(2.41 0 0 2.41 539.74 539.9)"  >
<g style="" vector-effect="non-scaling-stroke"   >
		<g transform="matrix(1 0 0 1 -63.56 13.19)"  >
<path style="stroke: none; stroke-width: 1; stroke-dasharray: none; stroke-linecap: butt; stroke-dashoffset: 0; stroke-linejoin: miter; stroke-miterlimit: 4; fill: rgb(255,255,255); fill-rule: nonzero; opacity: 1;" vector-effect="non-scaling-stroke"  transform=" translate(-25.45, -135.34)" d="M 42.443 142.74 L 25.813 142.74 L 30.963 130.078 L 35.663000000000004 130.078 C 36.62025519155798 130.10381100277087 37.550909648716406 129.76125857373216 38.263000000000005 129.121 C 38.94603769970559 128.5401428684487 39.33674174773308 127.68659916090225 39.330000000000005 126.79 Q 39.330000000000005 124.53800000000001 36.730000000000004 124.54 L 33.212 124.54 L 36.737 115.84 L 47.244 115.84 C 48.204537927035986 115.86938482776112 49.13928570136866 115.5265126085061 49.853 114.88300000000001 C 50.53914697521029 114.27906003090224 50.924968426635594 113.40392189511007 50.908 112.49000000000001 Q 50.908 110.31200000000001 47.708 110.31 L 35.742 110.31 C 34.76265608126981 110.22522338948164 33.77832178466238 110.40118220170379 32.888999999999996 110.82000000000001 C 32.17253770626951 111.46491387681546 31.64415856052341 112.29186698065483 31.359999999999996 113.21300000000001 L 26.673999999999996 124.554 L 24.726 124.554 C 23.76906460937271 124.5301290838985 22.83910466023789 124.87242588056081 22.125999999999998 125.511 C 21.447216139110203 126.07904946930454 21.055316966041293 126.91888573458212 21.055999999999997 127.804 Q 21.055999999999997 130.078 23.656 130.078 L 24.421999999999997 130.078 L 19.272 142.74 L 11.063 142.74 C 8.694345910673439 142.62550125217956 6.336600954012649 143.1286154931507 4.2209999999999965 144.2 C 2.921424473443614 144.95732235612337 1.8544018746815474 146.0565112763392 1.1360000000000001 147.378 C 0.38372608809225106 148.7161592863715 -0.007743698669656629 150.22690184373434 8.881784197001252e-16 151.762 C -0.06571330021516444 154.11623445506558 0.9052760247983669 156.38065760232982 2.655999999999999 157.956 C 4.5106723311055426 159.61017606058712 6.93354155951298 160.48242331719766 9.417000000000003 160.39 C 12.732406725188433 160.40411164186366 15.92425649590034 159.1327482351579 18.321999999999996 156.843 C 19.24162373430633 156.00957379652223 20.04634261035261 155.0575641274512 20.715000000000003 154.012 C 21.662835010708037 152.3720152959329 22.510713243171146 150.6762588310067 23.254000000000016 148.934 L 23.563000000000002 148.288 L 41.376 148.288 C 42.33648733178814 148.31707245042196 43.27112230871106 147.97424160606963 43.985 147.33100000000002 C 44.672260437540736 146.72761970258895 45.059214001095306 145.85240242698774 45.043 144.93800000000002 Q 45.042 142.743 42.443 142.74 Z M 13.859 152.923 C 12.783411541964888 153.96622120575387 11.356714986140055 154.56971384886776 9.858999999999998 154.615 C 8.94471553738096 154.64302732559793 8.053700492174393 154.32399106442332 7.365000000000001 153.722 C 6.713304134472046 153.1728407157851 6.34255615586161 152.3601317804945 6.355 151.508 Q 6.355 148.28400000000002 10.902000000000001 148.28400000000002 L 17.024 148.28400000000002 C 16.32878068199557 150.0473451757101 15.247288971304055 151.6325079074314 13.859000000000002 152.923 Z" stroke-linecap="round" />
</g>
		<g transform="matrix(1 0 0 1 -34.2 10.76)"  >
<path style="stroke: none; stroke-width: 1; stroke-dasharray: none; stroke-linecap: butt; stroke-dashoffset: 0; stroke-linejoin: miter; stroke-miterlimit: 4; fill: rgb(255,255,255); fill-rule: nonzero; opacity: 1;" vector-effect="non-scaling-stroke"  transform=" translate(-195.25, -176.04)" d="M 202.988 180.019 L 200.437 180.019 L 203.787 171.762 L 204.041 171.135 C 204.26352337017724 170.64595684376326 204.39014576786823 170.11875956865848 204.414 169.582 C 204.42482254961877 168.97548482934667 204.1759203931018 168.3932575626403 203.73 167.982 C 203.2694127787318 167.54876809686863 202.65607767210076 167.3154419044867 202.024 167.333 C 200.7740650384891 167.3308784471418 199.61730819060594 167.9936235624914 198.987 169.073 C 198.00794248359807 167.66025356366617 196.3540311975716 166.87153534514007 194.64 167 C 191.91527333838152 167.06728589633153 189.365942043252 168.3588491288496 187.7 170.516 C 185.7197145247046 172.69910440168448 184.62191634302576 175.54054826673118 184.61999999999998 178.488 C 184.5403313574246 180.21441850591833 185.097226245869 181.9100122077953 186.18499999999997 183.253 C 187.20638710469194 184.457424515533 188.7227341780533 185.1282865224793 190.301 185.07399999999998 L 192.934 185.07399999999998 C 194.2082012864405 184.9900814625703 195.40605012882153 184.43676223228542 196.296 183.521 C 196.78113566088572 184.5605932715969 197.8679208788499 185.1824714748019 199.01 185.07399999999998 L 201.98 185.07399999999998 C 202.99959868990973 185.13356267410683 204.01002513047652 184.85210684107986 204.85199999999998 184.27399999999997 C 205.54236798351928 183.7522359767157 205.93228265155068 182.92455517611987 205.89499999999998 182.05999999999997 Q 205.91 180.021 202.988 180.019 Z M 196.749 174.57 L 195.126 178.581 C 194.72767675004098 179.60746755259166 193.69488997189433 180.2434059090603 192.59900000000002 180.137 L 192.01700000000002 180.137 Q 190.10200000000003 180.137 190.10200000000003 177.744 C 190.139754258813 176.2383255931873 190.7061723871208 174.7939593660024 191.70200000000003 173.664 C 192.44083413403965 172.53562030079524 193.65637575682246 171.8084330291911 195 171.691 C 195.528651019528 171.67740025371714 196.04670838520187 171.84070094507086 196.472 172.155 C 196.8435658473945 172.39481882194548 197.07349878671548 172.8019683681577 197.08700000000002 173.244 C 197.06014673724442 173.7035447296316 196.945407644935 174.15367501484548 196.749 174.57 Z" stroke-linecap="round" />
</g>
		<g transform="matrix(1 0 0 1 -14.93 7.82)"  >
<path style="stroke: none; stroke-width: 1; stroke-dasharray: none; stroke-linecap: butt; stroke-dashoffset: 0; stroke-linejoin: miter; stroke-miterlimit: 4; fill: rgb(255,255,255); fill-rule: nonzero; opacity: 1;" vector-effect="non-scaling-stroke"  transform=" translate(-285.57, -154.33)" d="M 286.987 161.252 L 284.387 161.252 L 287.498 153.62300000000002 L 289.2 153.62300000000002 C 290.2180434044503 153.68155756253907 291.2271259066943 153.40398960405273 292.072 152.83300000000003 C 292.76147819794863 152.31444257156943 293.14883648331477 151.4876536588005 293.106 150.62600000000003 Q 293.106 148.56300000000005 290.15999999999997 148.56100000000004 L 289.44199999999995 148.56100000000004 L 290.30099999999993 146.72800000000004 C 290.65006085940377 146.03443331573314 290.8542096719919 145.27704122103128 290.90099999999995 144.50200000000004 C 290.9093517256079 143.91796901096097 290.66511500820405 143.35877628783047 290.23099999999994 142.96800000000005 C 289.79120052504857 142.5483359696379 289.2038131468353 142.31876989338207 288.59599999999995 142.32900000000004 C 287.0111276596171 142.3419209436975 285.61960230724685 143.38597041408016 285.16399999999993 144.90400000000002 L 284.90799999999996 145.52900000000002 L 283.67799999999994 148.568 L 282.61 148.568 C 281.58589800773876 148.5072038711207 280.57064815519766 148.78863141167264 279.724 149.36800000000002 C 279.0351997325266 149.90153437414727 278.650302434611 150.73778068581657 278.693 151.60800000000003 Q 278.693 153.62500000000003 281.293 153.62500000000003 L 281.64 153.62500000000003 L 278.905 160.37400000000002 L 278.457 161.39600000000002 C 278.19718844674145 162.00199659130539 278.05499561269664 162.65187553449334 278.038 163.311 C 278.0064912265092 164.16842112441853 278.3917441703824 164.98810823904245 279.072 165.511 C 279.884159414926 166.09010478886066 280.868986984734 166.37606796792056 281.865 166.322 L 286.017 166.322 C 287.04066300827617 166.38343984705912 288.056039621914 166.10578407524397 288.906 165.532 C 289.59043172735136 165.01274524487823 289.97589201638107 164.1902305641164 289.937 163.33200000000002 Q 289.933 161.254 286.987 161.252 Z" stroke-linecap="round" />
</g>
		<g transform="matrix(1 0 0 1 8.19 10.92)"  >
<path style="stroke: none; stroke-width: 1; stroke-dasharray: none; stroke-linecap: butt; stroke-dashoffset: 0; stroke-linejoin: miter; stroke-miterlimit: 4; fill: rgb(255,255,255); fill-rule: nonzero; opacity: 1;" vector-effect="non-scaling-stroke"  transform=" translate(-352.06, -176.19)" d="M 366.153 180.011 L 363.394 180.011 L 365.87600000000003 173.889 C 366.2027543631586 173.11787860627334 366.3759877563002 172.29043439903208 366.386 171.453 C 366.39618492708803 170.2238721839552 365.84362215105944 169.05759635135084 364.886 168.287 C 363.8491466066595 167.40888189393064 362.52299953544593 166.94734992477677 361.165 166.99200000000002 C 358.92019711618167 167.02667619485194 356.7957887467888 168.01326830890605 355.321 169.70600000000002 C 354.4223023239163 167.97618704725534 352.60698319221854 166.91939251198556 350.65900000000005 166.99200000000002 C 349.8288579055794 166.9678293708011 349.00293228764883 167.11877204767538 348.23500000000007 167.43500000000003 C 347.30467516114703 167.91268772045356 346.4426510415822 168.5130439644735 345.6720000000001 169.22000000000003 C 345.46217266166144 168.0268616533108 344.37235792772196 167.19406228559566 343.1660000000001 167.30500000000004 Q 341.2200000000001 167.30500000000004 340.2440000000001 169.69800000000004 L 335.6300000000001 181.06300000000005 L 335.37400000000014 181.69000000000005 C 335.1608602181608 182.18938236623526 335.0431634132666 182.7242753383338 335.02700000000016 183.26700000000005 C 335.0198043168869 183.84400451768357 335.2706392841371 184.39408120024976 335.7110000000002 184.76700000000005 C 336.1575841521715 185.1728531477488 336.7426717766239 185.39221627544873 337.3460000000002 185.38000000000005 Q 339.75800000000015 185.38000000000005 341.03400000000016 182.25000000000006 L 343.74800000000016 175.61100000000005 Q 345.21000000000015 171.99300000000005 347.71400000000017 171.99300000000005 C 348.11121707590917 171.98573703550488 348.4977778269066 172.12168999017157 348.80300000000017 172.37600000000006 C 349.08960320255073 172.58404021218885 349.26151308885545 172.91489264423646 349.26700000000017 173.26900000000006 C 349.23335392410735 173.7345847461191 349.1157960041548 174.19024872979688 348.9200000000002 174.61400000000006 L 346.2990000000002 181.07600000000005 L 346.04300000000023 181.70300000000006 C 345.8328368436502 182.20333113961124 345.7152633632498 182.73766364275676 345.69600000000025 183.28000000000006 C 345.6938166190998 183.84879291052945 345.93908282010733 184.39042243775452 346.3680000000003 184.76400000000007 C 346.8063439477041 185.17673015869445 347.3890493258296 185.4011237885949 347.99100000000027 185.38900000000007 Q 350.4300000000003 185.38900000000007 351.70300000000026 182.27800000000008 L 354.3030000000003 175.87800000000007 C 354.69817345092025 174.80573078105382 355.3333710031187 173.83805502705846 356.1600000000003 173.04900000000006 C 356.77538991107025 172.40735859424788 357.61301943659777 172.02557700358668 358.5010000000003 171.98200000000006 C 358.9192041627827 171.91865232080178 359.3428148398492 172.05602309574317 359.6442549929559 172.35274094880117 C 359.9456951460626 172.64945880185917 360.08973697107535 173.070847800505 360.0330000000003 173.49000000000007 C 360.0259088540744 173.78562565590778 359.962439180185 174.07717886377384 359.8460000000003 174.34900000000007 L 357.6680000000003 179.68300000000008 C 357.31314091149824 180.45805130562414 357.10075172758707 181.2906711047528 357.0410000000003 182.14100000000008 C 357.01475739958624 182.96195719660065 357.36769491158856 183.749336076564 357.9980000000003 184.27600000000007 C 358.69954791936425 184.8384902298341 359.581675758526 185.12672781144576 360.4800000000003 185.08700000000007 L 365.1800000000003 185.08700000000007 C 366.19813832945664 185.14645596892194 367.207503818601 184.8688101693314 368.0520000000003 184.29700000000008 C 368.73811456466484 183.77884149388868 369.12489168775966 182.95591144475074 369.0860000000003 182.0970000000001 Q 369.078 180.013 366.153 180.011 Z" stroke-linecap="round" />
</g>
		<g transform="matrix(1 0 0 1 35.32 10.76)"  >
<path style="stroke: none; stroke-width: 1; stroke-dasharray: none; stroke-linecap: butt; stroke-dashoffset: 0; stroke-linejoin: miter; stroke-miterlimit: 4; fill: rgb(255,255,255); fill-rule: nonzero; opacity: 1;" vector-effect="non-scaling-stroke"  transform=" translate(-490.36, -176.03)" d="M 491.863 167 C 489.01799310160874 166.97955818966653 486.2937383685923 168.1482870332121 484.348 170.224 C 482.29017630458156 172.22678289961647 481.141811819783 174.98459213434978 481.17 177.856 C 481.0300271879695 180.35853478900623 482.2103096566459 182.7517272712984 484.281 184.164 Q 485.60200000000003 185.064 489.38100000000003 185.064 C 490.59377537297274 185.10013488600768 491.8061387202861 184.97946994514672 492.98800000000006 184.70499999999998 C 493.89944593240324 184.44211403034615 494.7493410258806 184.00016858173794 495.48800000000006 183.40499999999997 C 496.7581427008756 182.34686449468032 497.7664053328141 181.00935927892493 498.4340000000001 179.49699999999999 C 499.16522214229803 177.9566146128015 499.5482914923758 176.27411393795006 499.5560000000001 174.569 C 499.6243080514889 172.54234643020834 498.84353366237497 170.5791736858067 497.4020000000001 169.153 C 495.9195084625899 167.72093586047535 493.9234788096043 166.9450824857005 491.863 167 Z M 492.488 178.966 C 491.7936385124123 179.71757359742134 490.79832688174065 180.11738708535992 489.777 180.055 Q 486.762 180.055 486.762 177.365 C 486.7674249231063 175.99080620010963 487.26964331927593 174.6649354271951 488.176 173.632 C 488.9047978326335 172.61801231188443 490.058458033048 171.9943723569 491.306 171.94 C 492.05831068855923 171.90992706571214 492.7871033943387 172.2054525079057 493.306 172.751 C 493.83184980233926 173.3332317287526 494.1070661004317 174.09923844876965 494.072 174.883 C 494.078723402388 176.3954135456902 493.5124085589392 177.85425487427148 492.487 178.966 Z" stroke-linecap="round" />
</g>
		<g transform="matrix(1 0 0 1 54.84 9.34)"  >
<path style="stroke: none; stroke-width: 1; stroke-dasharray: none; stroke-linecap: butt; stroke-dashoffset: 0; stroke-linejoin: miter; stroke-miterlimit: 4; fill: rgb(255,255,255); fill-rule: nonzero; opacity: 1;" vector-effect="non-scaling-stroke"  transform=" translate(-571.53, -165.57)" d="M 577.883 170.982 L 574.961 170.982 Q 572.826 170.982 572.826 169.067 Q 572.826 167.15200000000002 576.514 163.615 L 576.77 163.376 Q 580.6179999999999 163.376 580.6179999999999 160.43200000000002 Q 580.6179999999999 158.29700000000003 577.5809999999999 158.29700000000003 L 572.1529999999999 158.29700000000003 C 571.6920633779542 158.33009536891038 571.2288778400557 158.28306630406894 570.7839999999999 158.15800000000002 C 570.552310896836 157.99424492890302 570.4010869222112 157.73978151006304 570.3679999999998 157.45800000000003 L 570.1809999999998 156.74000000000004 C 570.0106005094744 155.7296095688758 569.0903585913833 155.0212281776403 568.0699999999998 155.11500000000004 Q 566.3539999999998 155.11500000000004 565.3799999999998 157.45800000000003 L 562.7479999999998 163.92000000000002 C 562.4812462238165 164.49143567949213 562.3090069153494 165.10237863834914 562.2379999999998 165.729 C 562.2271666796233 166.3299144593777 562.4871423616431 166.9038438251924 562.9459999999998 167.292 C 563.4232829336046 167.71582798719788 564.0450525880273 167.94026642894977 564.6829999999998 167.919 Q 566.4009999999997 167.919 567.4659999999998 165.31900000000002 L 568.2559999999997 163.36900000000003 L 570.6679999999998 163.36900000000003 C 569.5921672143785 164.50447725400025 568.6577068162968 165.76598200268612 567.8849999999998 167.12600000000003 C 567.3707189997726 168.09806830495555 567.0996509382338 169.18028180633982 567.0949999999998 170.28000000000003 C 567.0306008758548 171.80258655237037 567.5589498996733 173.2908532734657 568.5689999999998 174.43200000000002 C 569.5379385050929 175.4939781287488 570.9231750559053 176.07862030266062 572.3599999999999 176.032 L 576.9069999999999 176.032 C 577.9297880396151 176.09405170418142 578.9444078313896 175.8163144777428 579.7929999999999 175.24200000000002 C 580.4837168030281 174.71596007505389 580.8705764894186 173.88312674632536 580.8269999999999 173.01600000000002 Q 580.829 170.984 577.883 170.982 Z" stroke-linecap="round" />
</g>
		<g transform="matrix(1 0 0 1 74.15 10.76)"  >
<path style="stroke: none; stroke-width: 1; stroke-dasharray: none; stroke-linecap: butt; stroke-dashoffset: 0; stroke-linejoin: miter; stroke-miterlimit: 4; fill: rgb(255,255,255); fill-rule: nonzero; opacity: 1;" vector-effect="non-scaling-stroke"  transform=" translate(-653.25, -176.04)" d="M 659.319 180.019 L 652.4309999999999 180.019 Q 649.81 180.019 649.81 178.279 L 654.448 178.279 C 655.9062557547112 178.37024928074487 657.3627353781725 178.07460668545679 658.67 177.422 C 660.3330429870177 176.48582752354744 661.321579117173 174.68778454278674 661.221 172.782 C 661.276911065693 171.17867339907082 660.5983345990298 169.6374248426674 659.378 168.596 C 657.9999783592219 167.48205950603452 656.2609917941326 166.91271665681353 654.4910000000001 166.996 C 651.7338438113096 166.98471263621647 649.1072738243842 168.16958754142948 647.291 170.244 C 645.3082281064145 172.3215996006256 644.2217497033388 175.09544181780035 644.2660000000001 177.967 C 644.1287053995164 179.92115150198953 644.8239269407604 181.84227309636753 646.1800000000001 183.256 C 647.7341939943236 184.5605989937313 649.7349796073943 185.20935704607848 651.759 185.065 L 658.321 185.065 C 659.3446552038271 185.1263647163977 660.3600081099885 184.8487154274162 661.21 184.275 C 661.8954025178466 183.7565308648666 662.2811169270788 182.93347392955064 662.241 182.07500000000002 Q 662.241 180.021 659.319 180.019 Z M 654.293 171.739 C 655.315 171.739 655.849 172.151 655.893 172.969 Q 655.96 174.06 653.481 174.06 L 650.923 174.06 C 651.4839562802108 172.68785599819947 652.803111041683 171.77716051890835 654.285 171.739 Z" stroke-linecap="round" />
</g>
		<g transform="matrix(1 0 0 1 64.5 -22.79)"  >
<path style="stroke: none; stroke-width: 1; stroke-dasharray: none; stroke-linecap: butt; stroke-dashoffset: 0; stroke-linejoin: miter; stroke-miterlimit: 4; fill: rgb(255,255,255); fill-rule: nonzero; opacity: 1;" vector-effect="non-scaling-stroke"  transform=" translate(-563.55, -15.44)" d="M 587.976 1.84 C 587.8861477164372 0.9138191509430257 587.153180849057 0.1808522835627493 586.227 0.09100000000000019 C 583.5467175521969 -0.10104078889998036 580.8534888269584 -0.0004470865130910273 578.1949999999999 0.39099999999999 C 572.212 1.248 567.295 3.461 563.9649999999999 6.791 C 561.355328142238 9.536765349473198 559.4795868953698 12.89583479541406 558.511 16.558000000000007 C 557.9052679410565 15.481487841342638 557.1575725197101 14.491287517256378 556.288 13.613999999999997 C 550.736 8.062000000000001 541.2520000000001 8.897000000000002 540.852 8.935 C 539.9250066147705 9.024259944664104 539.1908484900248 9.757160949333255 539.1 10.684000000000001 C 539.062 11.084000000000001 538.226 20.57 543.779 26.122 C 547.91 30.253 554.132 30.865000000000002 557.479 30.865000000000002 C 557.864 30.865000000000002 558.455 30.865000000000002 559.106 30.877000000000002 C 559.898 30.877000000000002 560.781 30.891000000000002 561.478 30.891000000000002 C 563.3402946313519 30.89084728167569 565.2002539324586 30.75918649032892 567.044 30.49699999999999 C 573.032 29.639000000000003 577.944 27.426000000000002 581.2769999999999 24.097 C 584.6099999999999 20.768 586.8219999999999 15.845 587.6769999999999 9.867 C 588.066796047214 7.209366502314117 588.1673834748826 4.5173116464751635 587.9769999999999 1.8380000000000152 Z M 548.659 21.247 L 554.147 26.732 C 551.3192008433364 26.441814709871345 548.6542113252161 25.269890991611593 546.529 23.381999999999998 C 543.468 20.320999999999998 542.978 15.244999999999997 542.939 12.774999999999999 C 545.418 12.817999999999998 550.485 13.310999999999998 553.5459999999999 16.365 C 555.4421245141411 18.488047093265884 556.619735052376 21.15543120097044 556.911 23.986999999999995 L 551.411 18.487 C 550.6516084689827 17.7267800418579 549.419719958142 17.726108468982634 548.6595 18.485499999999977 C 547.8992800418579 19.244891531017316 547.8986084689826 20.4767800418579 548.6579999999999 21.237 Z M 578.514 21.352 C 574.367 25.499000000000002 567.984 26.643 563.8870000000001 26.923000000000002 L 573.9870000000001 16.823 C 574.7463915310174 16.06360846898266 574.7463915310174 14.832391531017342 573.9870000000001 14.073 C 573.2276084689828 13.31360846898266 571.9963915310174 13.31360846898266 571.2370000000001 14.073 L 561.151 24.169 C 561.4359999999999 20.058 562.587 13.682 566.7149999999999 9.547 C 571.8749999999999 4.3870000000000005 580.3229999999999 3.8470000000000004 584.1729999999999 3.894000000000001 C 584.217 7.749 583.666 16.209 578.514 21.352 Z" stroke-linecap="round" />
</g>
</g>
</g>
<g transform="matrix(2.41 0 0 2.41 377.82 411.39)"  >
<g style="" vector-effect="non-scaling-stroke"   >
		<g transform="matrix(1 0 0 1 -63.56 13.19)"  >
<path style="stroke: none; stroke-width: 1; stroke-dasharray: none; stroke-linecap: butt; stroke-dashoffset: 0; stroke-linejoin: miter; stroke-miterlimit: 4; fill: rgb(255,255,255); fill-rule: nonzero; opacity: 1;" vector-effect="non-scaling-stroke"  transform=" translate(-25.45, -135.34)" d="M 42.443 142.74 L 25.813 142.74 L 30.963 130.078 L 35.663000000000004 130.078 C 36.62025519155798 130.10381100277087 37.550909648716406 129.76125857373216 38.263000000000005 129.121 C 38.94603769970559 128.5401428684487 39.33674174773308 127.68659916090225 39.330000000000005 126.79 Q 39.330000000000005 124.53800000000001 36.730000000000004 124.54 L 33.212 124.54 L 36.737 115.84 L 47.244 115.84 C 48.204537927035986 115.86938482776112 49.13928570136866 115.5265126085061 49.853 114.88300000000001 C 50.53914697521029 114.27906003090224 50.924968426635594 113.40392189511007 50.908 112.49000000000001 Q 50.908 110.31200000000001 47.708 110.31 L 35.742 110.31 C 34.76265608126981 110.22522338948164 33.77832178466238 110.40118220170379 32.888999999999996 110.82000000000001 C 32.17253770626951 111.46491387681546 31.64415856052341 112.29186698065483 31.359999999999996 113.21300000000001 L 26.673999999999996 124.554 L 24.726 124.554 C 23.76906460937271 124.5301290838985 22.83910466023789 124.87242588056081 22.125999999999998 125.511 C 21.447216139110203 126.07904946930454 21.055316966041293 126.91888573458212 21.055999999999997 127.804 Q 21.055999999999997 130.078 23.656 130.078 L 24.421999999999997 130.078 L 19.272 142.74 L 11.063 142.74 C 8.694345910673439 142.62550125217956 6.336600954012649 143.1286154931507 4.2209999999999965 144.2 C 2.921424473443614 144.95732235612337 1.8544018746815474 146.0565112763392 1.1360000000000001 147.378 C 0.38372608809225106 148.7161592863715 -0.007743698669656629 150.22690184373434 8.881784197001252e-16 151.762 C -0.06571330021516444 154.11623445506558 0.9052760247983669 156.38065760232982 2.655999999999999 157.956 C 4.5106723311055426 159.61017606058712 6.93354155951298 160.48242331719766 9.417000000000003 160.39 C 12.732406725188433 160.40411164186366 15.92425649590034 159.1327482351579 18.321999999999996 156.843 C 19.24162373430633 156.00957379652223 20.04634261035261 155.0575641274512 20.715000000000003 154.012 C 21.662835010708037 152.3720152959329 22.510713243171146 150.6762588310067 23.254000000000016 148.934 L 23.563000000000002 148.288 L 41.376 148.288 C 42.33648733178814 148.31707245042196 43.27112230871106 147.97424160606963 43.985 147.33100000000002 C 44.672260437540736 146.72761970258895 45.059214001095306 145.85240242698774 45.043 144.93800000000002 Q 45.042 142.743 42.443 142.74 Z M 13.859 152.923 C 12.783411541964888 153.96622120575387 11.356714986140055 154.56971384886776 9.858999999999998 154.615 C 8.94471553738096 154.64302732559793 8.053700492174393 154.32399106442332 7.365000000000001 153.722 C 6.713304134472046 153.1728407157851 6.34255615586161 152.3601317804945 6.355 151.508 Q 6.355 148.28400000000002 10.902000000000001 148.28400000000002 L 17.024 148.28400000000002 C 16.32878068199557 150.0473451757101 15.247288971304055 151.6325079074314 13.859000000000002 152.923 Z" stroke-linecap="round" />
</g>
		<g transform="matrix(1 0 0 1 -34.2 10.76)"  >
<path style="stroke: none; stroke-width: 1; stroke-dasharray: none; stroke-linecap: butt; stroke-dashoffset: 0; stroke-linejoin: miter; stroke-miterlimit: 4; fill: rgb(255,255,255); fill-rule: nonzero; opacity: 1;" vector-effect="non-scaling-stroke"  transform=" translate(-195.25, -176.04)" d="M 202.988 180.019 L 200.437 180.019 L 203.787 171.762 L 204.041 171.135 C 204.26352337017724 170.64595684376326 204.39014576786823 170.11875956865848 204.414 169.582 C 204.42482254961877 168.97548482934667 204.1759203931018 168.3932575626403 203.73 167.982 C 203.2694127787318 167.54876809686863 202.65607767210076 167.3154419044867 202.024 167.333 C 200.7740650384891 167.3308784471418 199.61730819060594 167.9936235624914 198.987 169.073 C 198.00794248359807 167.66025356366617 196.3540311975716 166.87153534514007 194.64 167 C 191.91527333838152 167.06728589633153 189.365942043252 168.3588491288496 187.7 170.516 C 185.7197145247046 172.69910440168448 184.62191634302576 175.54054826673118 184.61999999999998 178.488 C 184.5403313574246 180.21441850591833 185.097226245869 181.9100122077953 186.18499999999997 183.253 C 187.20638710469194 184.457424515533 188.7227341780533 185.1282865224793 190.301 185.07399999999998 L 192.934 185.07399999999998 C 194.2082012864405 184.9900814625703 195.40605012882153 184.43676223228542 196.296 183.521 C 196.78113566088572 184.5605932715969 197.8679208788499 185.1824714748019 199.01 185.07399999999998 L 201.98 185.07399999999998 C 202.99959868990973 185.13356267410683 204.01002513047652 184.85210684107986 204.85199999999998 184.27399999999997 C 205.54236798351928 183.7522359767157 205.93228265155068 182.92455517611987 205.89499999999998 182.05999999999997 Q 205.91 180.021 202.988 180.019 Z M 196.749 174.57 L 195.126 178.581 C 194.72767675004098 179.60746755259166 193.69488997189433 180.2434059090603 192.59900000000002 180.137 L 192.01700000000002 180.137 Q 190.10200000000003 180.137 190.10200000000003 177.744 C 190.139754258813 176.2383255931873 190.7061723871208 174.7939593660024 191.70200000000003 173.664 C 192.44083413403965 172.53562030079524 193.65637575682246 171.8084330291911 195 171.691 C 195.528651019528 171.67740025371714 196.04670838520187 171.84070094507086 196.472 172.155 C 196.8435658473945 172.39481882194548 197.07349878671548 172.8019683681577 197.08700000000002 173.244 C 197.06014673724442 173.7035447296316 196.945407644935 174.15367501484548 196.749 174.57 Z" stroke-linecap="round" />
</g>
		<g transform="matrix(1 0 0 1 -14.93 7.82)"  >
<path style="stroke: none; stroke-width: 1; stroke-dasharray: none; stroke-linecap: butt; stroke-dashoffset: 0; stroke-linejoin: miter; stroke-miterlimit: 4; fill: rgb(255,255,255); fill-rule: nonzero; opacity: 1;" vector-effect="non-scaling-stroke"  transform=" translate(-285.57, -154.33)" d="M 286.987 161.252 L 284.387 161.252 L 287.498 153.62300000000002 L 289.2 153.62300000000002 C 290.2180434044503 153.68155756253907 291.2271259066943 153.40398960405273 292.072 152.83300000000003 C 292.76147819794863 152.31444257156943 293.14883648331477 151.4876536588005 293.106 150.62600000000003 Q 293.106 148.56300000000005 290.15999999999997 148.56100000000004 L 289.44199999999995 148.56100000000004 L 290.30099999999993 146.72800000000004 C 290.65006085940377 146.03443331573314 290.8542096719919 145.27704122103128 290.90099999999995 144.50200000000004 C 290.9093517256079 143.91796901096097 290.66511500820405 143.35877628783047 290.23099999999994 142.96800000000005 C 289.79120052504857 142.5483359696379 289.2038131468353 142.31876989338207 288.59599999999995 142.32900000000004 C 287.0111276596171 142.3419209436975 285.61960230724685 143.38597041408016 285.16399999999993 144.90400000000002 L 284.90799999999996 145.52900000000002 L 283.67799999999994 148.568 L 282.61 148.568 C 281.58589800773876 148.5072038711207 280.57064815519766 148.78863141167264 279.724 149.36800000000002 C 279.0351997325266 149.90153437414727 278.650302434611 150.73778068581657 278.693 151.60800000000003 Q 278.693 153.62500000000003 281.293 153.62500000000003 L 281.64 153.62500000000003 L 278.905 160.37400000000002 L 278.457 161.39600000000002 C 278.19718844674145 162.00199659130539 278.05499561269664 162.65187553449334 278.038 163.311 C 278.0064912265092 164.16842112441853 278.3917441703824 164.98810823904245 279.072 165.511 C 279.884159414926 166.09010478886066 280.868986984734 166.37606796792056 281.865 166.322 L 286.017 166.322 C 287.04066300827617 166.38343984705912 288.056039621914 166.10578407524397 288.906 165.532 C 289.59043172735136 165.01274524487823 289.97589201638107 164.1902305641164 289.937 163.33200000000002 Q 289.933 161.254 286.987 161.252 Z" stroke-linecap="round" />
</g>
		<g transform="matrix(1 0 0 1 8.19 10.92)"  >
<path style="stroke: none; stroke-width: 1; stroke-dasharray: none; stroke-linecap: butt; stroke-dashoffset: 0; stroke-linejoin: miter; stroke-miterlimit: 4; fill: rgb(255,255,255); fill-rule: nonzero; opacity: 1;" vector-effect="non-scaling-stroke"  transform=" translate(-352.06, -176.19)" d="M 366.153 180.011 L 363.394 180.011 L 365.87600000000003 173.889 C 366.2027543631586 173.11787860627334 366.3759877563002 172.29043439903208 366.386 171.453 C 366.39618492708803 170.2238721839552 365.84362215105944 169.05759635135084 364.886 168.287 C 363.8491466066595 167.40888189393064 362.52299953544593 166.94734992477677 361.165 166.99200000000002 C 358.92019711618167 167.02667619485194 356.7957887467888 168.01326830890605 355.321 169.70600000000002 C 354.4223023239163 167.97618704725534 352.60698319221854 166.91939251198556 350.65900000000005 166.99200000000002 C 349.8288579055794 166.9678293708011 349.00293228764883 167.11877204767538 348.23500000000007 167.43500000000003 C 347.30467516114703 167.91268772045356 346.4426510415822 168.5130439644735 345.6720000000001 169.22000000000003 C 345.46217266166144 168.0268616533108 344.37235792772196 167.19406228559566 343.1660000000001 167.30500000000004 Q 341.2200000000001 167.30500000000004 340.2440000000001 169.69800000000004 L 335.6300000000001 181.06300000000005 L 335.37400000000014 181.69000000000005 C 335.1608602181608 182.18938236623526 335.0431634132666 182.7242753383338 335.02700000000016 183.26700000000005 C 335.0198043168869 183.84400451768357 335.2706392841371 184.39408120024976 335.7110000000002 184.76700000000005 C 336.1575841521715 185.1728531477488 336.7426717766239 185.39221627544873 337.3460000000002 185.38000000000005 Q 339.75800000000015 185.38000000000005 341.03400000000016 182.25000000000006 L 343.74800000000016 175.61100000000005 Q 345.21000000000015 171.99300000000005 347.71400000000017 171.99300000000005 C 348.11121707590917 171.98573703550488 348.4977778269066 172.12168999017157 348.80300000000017 172.37600000000006 C 349.08960320255073 172.58404021218885 349.26151308885545 172.91489264423646 349.26700000000017 173.26900000000006 C 349.23335392410735 173.7345847461191 349.1157960041548 174.19024872979688 348.9200000000002 174.61400000000006 L 346.2990000000002 181.07600000000005 L 346.04300000000023 181.70300000000006 C 345.8328368436502 182.20333113961124 345.7152633632498 182.73766364275676 345.69600000000025 183.28000000000006 C 345.6938166190998 183.84879291052945 345.93908282010733 184.39042243775452 346.3680000000003 184.76400000000007 C 346.8063439477041 185.17673015869445 347.3890493258296 185.4011237885949 347.99100000000027 185.38900000000007 Q 350.4300000000003 185.38900000000007 351.70300000000026 182.27800000000008 L 354.3030000000003 175.87800000000007 C 354.69817345092025 174.80573078105382 355.3333710031187 173.83805502705846 356.1600000000003 173.04900000000006 C 356.77538991107025 172.40735859424788 357.61301943659777 172.02557700358668 358.5010000000003 171.98200000000006 C 358.9192041627827 171.91865232080178 359.3428148398492 172.05602309574317 359.6442549929559 172.35274094880117 C 359.9456951460626 172.64945880185917 360.08973697107535 173.070847800505 360.0330000000003 173.49000000000007 C 360.0259088540744 173.78562565590778 359.962439180185 174.07717886377384 359.8460000000003 174.34900000000007 L 357.6680000000003 179.68300000000008 C 357.31314091149824 180.45805130562414 357.10075172758707 181.2906711047528 357.0410000000003 182.14100000000008 C 357.01475739958624 182.96195719660065 357.36769491158856 183.749336076564 357.9980000000003 184.27600000000007 C 358.69954791936425 184.8384902298341 359.581675758526 185.12672781144576 360.4800000000003 185.08700000000007 L 365.1800000000003 185.08700000000007 C 366.19813832945664 185.14645596892194 367.207503818601 184.8688101693314 368.0520000000003 184.29700000000008 C 368.73811456466484 183.77884149388868 369.12489168775966 182.95591144475074 369.0860000000003 182.0970000000001 Q 369.078 180.013 366.153 180.011 Z" stroke-linecap="round" />
</g>
		<g transform="matrix(1 0 0 1 35.32 10.76)"  >
<path style="stroke: none; stroke-width: 1; stroke-dasharray: none; stroke-linecap: butt; stroke-dashoffset: 0; stroke-linejoin: miter; stroke-miterlimit: 4; fill: rgb(255,255,255); fill-rule: nonzero; opacity: 1;" vector-effect="non-scaling-stroke"  transform=" translate(-490.36, -176.03)" d="M 491.863 167 C 489.01799310160874 166.97955818966653 486.2937383685923 168.1482870332121 484.348 170.224 C 482.29017630458156 172.22678289961647 481.141811819783 174.98459213434978 481.17 177.856 C 481.0300271879695 180.35853478900623 482.2103096566459 182.7517272712984 484.281 184.164 Q 485.60200000000003 185.064 489.38100000000003 185.064 C 490.59377537297274 185.10013488600768 491.8061387202861 184.97946994514672 492.98800000000006 184.70499999999998 C 493.89944593240324 184.44211403034615 494.7493410258806 184.00016858173794 495.48800000000006 183.40499999999997 C 496.7581427008756 182.34686449468032 497.7664053328141 181.00935927892493 498.4340000000001 179.49699999999999 C 499.16522214229803 177.9566146128015 499.5482914923758 176.27411393795006 499.5560000000001 174.569 C 499.6243080514889 172.54234643020834 498.84353366237497 170.5791736858067 497.4020000000001 169.153 C 495.9195084625899 167.72093586047535 493.9234788096043 166.9450824857005 491.863 167 Z M 492.488 178.966 C 491.7936385124123 179.71757359742134 490.79832688174065 180.11738708535992 489.777 180.055 Q 486.762 180.055 486.762 177.365 C 486.7674249231063 175.99080620010963 487.26964331927593 174.6649354271951 488.176 173.632 C 488.9047978326335 172.61801231188443 490.058458033048 171.9943723569 491.306 171.94 C 492.05831068855923 171.90992706571214 492.7871033943387 172.2054525079057 493.306 172.751 C 493.83184980233926 173.3332317287526 494.1070661004317 174.09923844876965 494.072 174.883 C 494.078723402388 176.3954135456902 493.5124085589392 177.85425487427148 492.487 178.966 Z" stroke-linecap="round" />
</g>
		<g transform="matrix(1 0 0 1 54.84 9.34)"  >
<path style="stroke: none; stroke-width: 1; stroke-dasharray: none; stroke-linecap: butt; stroke-dashoffset: 0; stroke-linejoin: miter; stroke-miterlimit: 4; fill: rgb(255,255,255); fill-rule: nonzero; opacity: 1;" vector-effect="non-scaling-stroke"  transform=" translate(-571.53, -165.57)" d="M 577.883 170.982 L 574.961 170.982 Q 572.826 170.982 572.826 169.067 Q 572.826 167.15200000000002 576.514 163.615 L 576.77 163.376 Q 580.6179999999999 163.376 580.6179999999999 160.43200000000002 Q 580.6179999999999 158.29700000000003 577.5809999999999 158.29700000000003 L 572.1529999999999 158.29700000000003 C 571.6920633779542 158.33009536891038 571.2288778400557 158.28306630406894 570.7839999999999 158.15800000000002 C 570.552310896836 157.99424492890302 570.4010869222112 157.73978151006304 570.3679999999998 157.45800000000003 L 570.1809999999998 156.74000000000004 C 570.0106005094744 155.7296095688758 569.0903585913833 155.0212281776403 568.0699999999998 155.11500000000004 Q 566.3539999999998 155.11500000000004 565.3799999999998 157.45800000000003 L 562.7479999999998 163.92000000000002 C 562.4812462238165 164.49143567949213 562.3090069153494 165.10237863834914 562.2379999999998 165.729 C 562.2271666796233 166.3299144593777 562.4871423616431 166.9038438251924 562.9459999999998 167.292 C 563.4232829336046 167.71582798719788 564.0450525880273 167.94026642894977 564.6829999999998 167.919 Q 566.4009999999997 167.919 567.4659999999998 165.31900000000002 L 568.2559999999997 163.36900000000003 L 570.6679999999998 163.36900000000003 C 569.5921672143785 164.50447725400025 568.6577068162968 165.76598200268612 567.8849999999998 167.12600000000003 C 567.3707189997726 168.09806830495555 567.0996509382338 169.18028180633982 567.0949999999998 170.28000000000003 C 567.0306008758548 171.80258655237037 567.5589498996733 173.2908532734657 568.5689999999998 174.43200000000002 C 569.5379385050929 175.4939781287488 570.9231750559053 176.07862030266062 572.3599999999999 176.032 L 576.9069999999999 176.032 C 577.9297880396151 176.09405170418142 578.9444078313896 175.8163144777428 579.7929999999999 175.24200000000002 C 580.4837168030281 174.71596007505389 580.8705764894186 173.88312674632536 580.8269999999999 173.01600000000002 Q 580.829 170.984 577.883 170.982 Z" stroke-linecap="round" />
</g>
		<g transform="matrix(1 0 0 1 74.15 10.76)"  >
<path style="stroke: none; stroke-width: 1; stroke-dasharray: none; stroke-linecap: butt; stroke-dashoffset: 0; stroke-linejoin: miter; stroke-miterlimit: 4; fill: rgb(255,255,255); fill-rule: nonzero; opacity: 1;" vector-effect="non-scaling-stroke"  transform=" translate(-653.25, -176.04)" d="M 659.319 180.019 L 652.4309999999999 180.019 Q 649.81 180.019 649.81 178.279 L 654.448 178.279 C 655.9062557547112 178.37024928074487 657.3627353781725 178.07460668545679 658.67 177.422 C 660.3330429870177 176.48582752354744 661.321579117173 174.68778454278674 661.221 172.782 C 661.276911065693 171.17867339907082 660.5983345990298 169.6374248426674 659.378 168.596 C 657.9999783592219 167.48205950603452 656.2609917941326 166.91271665681353 654.4910000000001 166.996 C 651.7338438113096 166.98471263621647 649.1072738243842 168.16958754142948 647.291 170.244 C 645.3082281064145 172.3215996006256 644.2217497033388 175.09544181780035 644.2660000000001 177.967 C 644.1287053995164 179.92115150198953 644.8239269407604 181.84227309636753 646.1800000000001 183.256 C 647.7341939943236 184.5605989937313 649.7349796073943 185.20935704607848 651.759 185.065 L 658.321 185.065 C 659.3446552038271 185.1263647163977 660.3600081099885 184.8487154274162 661.21 184.275 C 661.8954025178466 183.7565308648666 662.2811169270788 182.93347392955064 662.241 182.07500000000002 Q 662.241 180.021 659.319 180.019 Z M 654.293 171.739 C 655.315 171.739 655.849 172.151 655.893 172.969 Q 655.96 174.06 653.481 174.06 L 650.923 174.06 C 651.4839562802108 172.68785599819947 652.803111041683 171.77716051890835 654.285 171.739 Z" stroke-linecap="round" />
</g>
		<g transform="matrix(1 0 0 1 64.5 -22.79)"  >
<path style="stroke: none; stroke-width: 1; stroke-dasharray: none; stroke-linecap: butt; stroke-dashoffset: 0; stroke-linejoin: miter; stroke-miterlimit: 4; fill: rgb(255,255,255); fill-rule: nonzero; opacity: 1;" vector-effect="non-scaling-stroke"  transform=" translate(-563.55, -15.44)" d="M 587.976 1.84 C 587.8861477164372 0.9138191509430257 587.153180849057 0.1808522835627493 586.227 0.09100000000000019 C 583.5467175521969 -0.10104078889998036 580.8534888269584 -0.0004470865130910273 578.1949999999999 0.39099999999999 C 572.212 1.248 567.295 3.461 563.9649999999999 6.791 C 561.355328142238 9.536765349473198 559.4795868953698 12.89583479541406 558.511 16.558000000000007 C 557.9052679410565 15.481487841342638 557.1575725197101 14.491287517256378 556.288 13.613999999999997 C 550.736 8.062000000000001 541.2520000000001 8.897000000000002 540.852 8.935 C 539.9250066147705 9.024259944664104 539.1908484900248 9.757160949333255 539.1 10.684000000000001 C 539.062 11.084000000000001 538.226 20.57 543.779 26.122 C 547.91 30.253 554.132 30.865000000000002 557.479 30.865000000000002 C 557.864 30.865000000000002 558.455 30.865000000000002 559.106 30.877000000000002 C 559.898 30.877000000000002 560.781 30.891000000000002 561.478 30.891000000000002 C 563.3402946313519 30.89084728167569 565.2002539324586 30.75918649032892 567.044 30.49699999999999 C 573.032 29.639000000000003 577.944 27.426000000000002 581.2769999999999 24.097 C 584.6099999999999 20.768 586.8219999999999 15.845 587.6769999999999 9.867 C 588.066796047214 7.209366502314117 588.1673834748826 4.5173116464751635 587.9769999999999 1.8380000000000152 Z M 548.659 21.247 L 554.147 26.732 C 551.3192008433364 26.441814709871345 548.6542113252161 25.269890991611593 546.529 23.381999999999998 C 543.468 20.320999999999998 542.978 15.244999999999997 542.939 12.774999999999999 C 545.418 12.817999999999998 550.485 13.310999999999998 553.5459999999999 16.365 C 555.4421245141411 18.488047093265884 556.619735052376 21.15543120097044 556.911 23.986999999999995 L 551.411 18.487 C 550.6516084689827 17.7267800418579 549.419719958142 17.726108468982634 548.6595 18.485499999999977 C 547.8992800418579 19.244891531017316 547.8986084689826 20.4767800418579 548.6579999999999 21.237 Z M 578.514 21.352 C 574.367 25.499000000000002 567.984 26.643 563.8870000000001 26.923000000000002 L 573.9870000000001 16.823 C 574.7463915310174 16.06360846898266 574.7463915310174 14.832391531017342 573.9870000000001 14.073 C 573.2276084689828 13.31360846898266 571.9963915310174 13.31360846898266 571.2370000000001 14.073 L 561.151 24.169 C 561.4359999999999 20.058 562.587 13.682 566.7149999999999 9.547 C 571.8749999999999 4.3870000000000005 580.3229999999999 3.8470000000000004 584.1729999999999 3.894000000000001 C 584.217 7.749 583.666 16.209 578.514 21.352 Z" stroke-linecap="round" />
</g>
</g>
</g>
</svg>